<svg width="102" height="18" viewBox="0 0 102 18" fill="none" xmlns="http://www.w3.org/2000/svg">
<circle cx="6.5" cy="8.5" r="6.5" fill="#5356FF"/>
<path d="M21.9482 14V3.09091H26.3161C27.1186 3.09091 27.788 3.20987 28.3242 3.4478C28.8604 3.68572 29.2635 4.01598 29.5334 4.43857C29.8033 4.8576 29.9382 5.34055 29.9382 5.88743C29.9382 6.31357 29.853 6.68821 29.6825 7.01136C29.5121 7.33097 29.2777 7.59375 28.9794 7.79972C28.6847 8.00213 28.3473 8.14595 27.9673 8.23118V8.33771C28.3828 8.35547 28.7717 8.47266 29.1339 8.68928C29.4996 8.90589 29.7962 9.20952 30.0234 9.60014C30.2507 9.98722 30.3643 10.4489 30.3643 10.9851C30.3643 11.5639 30.2205 12.0806 29.9329 12.5352C29.6488 12.9862 29.228 13.343 28.6705 13.6058C28.1129 13.8686 27.4258 14 26.609 14H21.9482ZM24.2546 12.1143H26.1349C26.7777 12.1143 27.2464 11.9918 27.5412 11.7468C27.8359 11.4982 27.9833 11.168 27.9833 10.756C27.9833 10.4542 27.9105 10.1879 27.7649 9.95703C27.6193 9.72621 27.4116 9.5451 27.1417 9.41371C26.8754 9.28232 26.5575 9.21662 26.1882 9.21662H24.2546V12.1143ZM24.2546 7.65589H25.9645C26.2805 7.65589 26.5611 7.60085 26.8061 7.49077C27.0547 7.37713 27.25 7.21733 27.392 7.01136C27.5376 6.8054 27.6104 6.55859 27.6104 6.27095C27.6104 5.87678 27.4702 5.55895 27.1896 5.31747C26.9126 5.07599 26.5185 4.95526 26.0071 4.95526H24.2546V7.65589ZM34.0917 3.09091V14H31.8225V3.09091H34.0917ZM41.1562 10.5163V5.81818H43.4254V14H41.2468V12.5138H41.1616C40.9769 12.9933 40.6697 13.3786 40.2401 13.6697C39.8139 13.9609 39.2937 14.1065 38.6793 14.1065C38.1325 14.1065 37.6513 13.9822 37.2358 13.7337C36.8203 13.4851 36.4954 13.1317 36.261 12.6737C36.0302 12.2156 35.913 11.6669 35.9094 11.0277V5.81818H38.1786V10.6229C38.1822 11.1058 38.3118 11.4876 38.5675 11.7681C38.8232 12.0487 39.1658 12.1889 39.5955 12.1889C39.869 12.1889 40.1246 12.1268 40.3626 12.0025C40.6005 11.8746 40.7923 11.6864 40.9379 11.4379C41.087 11.1893 41.1598 10.8821 41.1562 10.5163ZM48.9692 14.1598C48.1276 14.1598 47.4031 13.9893 46.7959 13.6484C46.1922 13.304 45.727 12.8175 45.4003 12.1889C45.0736 11.5568 44.9102 10.8093 44.9102 9.94638C44.9102 9.10476 45.0736 8.36612 45.4003 7.73047C45.727 7.09482 46.1869 6.59943 46.7799 6.24432C47.3765 5.8892 48.0761 5.71165 48.8786 5.71165C49.4184 5.71165 49.9209 5.79865 50.3861 5.97266C50.8548 6.14311 51.2632 6.40057 51.6112 6.74503C51.9628 7.08949 52.2362 7.52273 52.4316 8.04474C52.6269 8.56321 52.7245 9.17045 52.7245 9.86648V10.4897H45.8158V9.08345H50.5885C50.5885 8.75675 50.5175 8.46733 50.3754 8.2152C50.2334 7.96307 50.0363 7.76598 49.7842 7.62393C49.5356 7.47834 49.2462 7.40554 48.9159 7.40554C48.5715 7.40554 48.2661 7.48544 47.9997 7.64524C47.7369 7.80149 47.531 8.01278 47.3818 8.27912C47.2327 8.5419 47.1563 8.83487 47.1528 9.15803V10.495C47.1528 10.8999 47.2274 11.2496 47.3765 11.5444C47.5292 11.8391 47.7441 12.0664 48.021 12.2262C48.298 12.386 48.6265 12.4659 49.0065 12.4659C49.2586 12.4659 49.4894 12.4304 49.699 12.3594C49.9085 12.2884 50.0878 12.1818 50.2369 12.0398C50.3861 11.8977 50.4997 11.7237 50.5779 11.5178L52.6766 11.6562C52.57 12.1605 52.3517 12.6009 52.0214 12.9773C51.6947 13.3501 51.2721 13.6413 50.7536 13.8509C50.2387 14.0568 49.6439 14.1598 48.9692 14.1598ZM57.7196 14V3.09091H62.0236C62.851 3.09091 63.5559 3.24893 64.1383 3.56499C64.7207 3.87749 65.1646 4.3125 65.47 4.87003C65.7789 5.42401 65.9334 6.06321 65.9334 6.78764C65.9334 7.51207 65.7772 8.15128 65.4647 8.70526C65.1522 9.25923 64.6994 9.6907 64.1064 9.99964C63.5169 10.3086 62.8031 10.4631 61.965 10.4631H59.2218V8.6147H61.5922C62.036 8.6147 62.4018 8.53835 62.6895 8.38565C62.9806 8.2294 63.1973 8.01456 63.3393 7.74112C63.4849 7.46413 63.5577 7.14631 63.5577 6.78764C63.5577 6.42543 63.4849 6.10937 63.3393 5.83949C63.1973 5.56605 62.9806 5.35476 62.6895 5.20561C62.3983 5.05291 62.0289 4.97656 61.5815 4.97656H60.0261V14H57.7196ZM70.9858 14.1598C70.1442 14.1598 69.4197 13.9893 68.8125 13.6484C68.2088 13.304 67.7436 12.8175 67.4169 12.1889C67.0902 11.5568 66.9268 10.8093 66.9268 9.94638C66.9268 9.10476 67.0902 8.36612 67.4169 7.73047C67.7436 7.09482 68.2035 6.59943 68.7965 6.24432C69.3931 5.8892 70.0927 5.71165 70.8952 5.71165C71.435 5.71165 71.9375 5.79865 72.4027 5.97266C72.8714 6.14311 73.2798 6.40057 73.6278 6.74503C73.9794 7.08949 74.2528 7.52273 74.4482 8.04474C74.6435 8.56321 74.7411 9.17045 74.7411 9.86648V10.4897H67.8324V9.08345H72.6051C72.6051 8.75675 72.5341 8.46733 72.392 8.2152C72.25 7.96307 72.0529 7.76598 71.8008 7.62393C71.5522 7.47834 71.2628 7.40554 70.9325 7.40554C70.5881 7.40554 70.2827 7.48544 70.0163 7.64524C69.7536 7.80149 69.5476 8.01278 69.3984 8.27912C69.2493 8.5419 69.1729 8.83487 69.1694 9.15803V10.495C69.1694 10.8999 69.244 11.2496 69.3931 11.5444C69.5458 11.8391 69.7607 12.0664 70.0376 12.2262C70.3146 12.386 70.6431 12.4659 71.0231 12.4659C71.2752 12.4659 71.506 12.4304 71.7156 12.3594C71.9251 12.2884 72.1044 12.1818 72.2536 12.0398C72.4027 11.8977 72.5163 11.7237 72.5945 11.5178L74.6932 11.6562C74.5866 12.1605 74.3683 12.6009 74.038 12.9773C73.7113 13.3501 73.2887 13.6413 72.7702 13.8509C72.2553 14.0568 71.6605 14.1598 70.9858 14.1598ZM78.555 14.1545C78.033 14.1545 77.5678 14.0639 77.1594 13.8828C76.7511 13.6982 76.4279 13.4265 76.19 13.0678C75.9556 12.7056 75.8384 12.2546 75.8384 11.7148C75.8384 11.2603 75.9219 10.8786 76.0888 10.5696C76.2557 10.2607 76.483 10.0121 76.7706 9.82386C77.0582 9.63565 77.3849 9.49361 77.7507 9.39773C78.12 9.30185 78.5071 9.23438 78.9119 9.19531C79.3878 9.1456 79.7713 9.09943 80.0625 9.05682C80.3537 9.01065 80.565 8.94318 80.6964 8.8544C80.8278 8.76562 80.8935 8.63423 80.8935 8.46023V8.42827C80.8935 8.09091 80.7869 7.8299 80.5739 7.64524C80.3643 7.46058 80.0661 7.36825 79.679 7.36825C79.2706 7.36825 78.9457 7.45881 78.7042 7.63991C78.4627 7.81747 78.3029 8.04119 78.2248 8.31108L76.1261 8.14062C76.2326 7.64347 76.4421 7.21378 76.7546 6.85156C77.0671 6.4858 77.4702 6.20526 77.9638 6.00994C78.4609 5.81108 79.0362 5.71165 79.6896 5.71165C80.1442 5.71165 80.5792 5.76491 80.9947 5.87145C81.4137 5.97798 81.7848 6.14311 82.108 6.36683C82.4347 6.59055 82.6921 6.8782 82.8803 7.22976C83.0685 7.57777 83.1626 7.99503 83.1626 8.48153V14H81.0107V12.8654H80.9467C80.8153 13.1211 80.6396 13.3466 80.4194 13.5419C80.1992 13.7337 79.9347 13.8846 79.6257 13.9947C79.3168 14.1012 78.9599 14.1545 78.555 14.1545ZM79.2049 12.5884C79.5387 12.5884 79.8335 12.5227 80.0891 12.3913C80.3448 12.2564 80.5455 12.0753 80.6911 11.848C80.8366 11.6207 80.9094 11.3633 80.9094 11.0756V10.2074C80.8384 10.2536 80.7408 10.2962 80.6165 10.3352C80.4957 10.3707 80.359 10.4045 80.2063 10.4364C80.0536 10.4648 79.9009 10.4915 79.7482 10.5163C79.5955 10.5376 79.457 10.5572 79.3327 10.5749C79.0664 10.614 78.8338 10.6761 78.6349 10.7614C78.4361 10.8466 78.2816 10.962 78.1715 11.1076C78.0614 11.2496 78.0064 11.4272 78.0064 11.6403C78.0064 11.9492 78.1183 12.1854 78.342 12.3487C78.5692 12.5085 78.8569 12.5884 79.2049 12.5884ZM88.6199 14.1598C87.7818 14.1598 87.0609 13.9822 86.4572 13.6271C85.8571 13.2685 85.3954 12.7713 85.0723 12.1357C84.7527 11.5 84.5929 10.7685 84.5929 9.94105C84.5929 9.10298 84.7544 8.3679 85.0776 7.7358C85.4043 7.10014 85.8677 6.60476 86.4679 6.24964C87.068 5.89098 87.7818 5.71165 88.6092 5.71165C89.323 5.71165 89.948 5.84126 90.4842 6.1005C91.0204 6.35973 91.4448 6.72372 91.7573 7.19247C92.0698 7.66122 92.242 8.21165 92.274 8.84375H90.1326C90.0723 8.43537 89.9125 8.10689 89.6532 7.85831C89.3975 7.60618 89.062 7.48011 88.6465 7.48011C88.2949 7.48011 87.9877 7.57599 87.725 7.76776C87.4657 7.95597 87.2633 8.23118 87.1177 8.59339C86.9721 8.95561 86.8993 9.39418 86.8993 9.90909C86.8993 10.4311 86.9703 10.875 87.1124 11.2408C87.258 11.6065 87.4622 11.8853 87.725 12.0771C87.9877 12.2688 88.2949 12.3647 88.6465 12.3647C88.9057 12.3647 89.1383 12.3114 89.3443 12.2049C89.5538 12.0984 89.726 11.9439 89.861 11.7415C89.9995 11.5355 90.09 11.2887 90.1326 11.0011H92.274C92.2385 11.6261 92.068 12.1765 91.7626 12.6523C91.4608 13.1246 91.0435 13.494 90.5108 13.7603C89.9782 14.0266 89.3478 14.1598 88.6199 14.1598ZM97.4555 14.1598C96.6139 14.1598 95.8895 13.9893 95.2822 13.6484C94.6785 13.304 94.2133 12.8175 93.8866 12.1889C93.5599 11.5568 93.3966 10.8093 93.3966 9.94638C93.3966 9.10476 93.5599 8.36612 93.8866 7.73047C94.2133 7.09482 94.6732 6.59943 95.2662 6.24432C95.8628 5.8892 96.5624 5.71165 97.365 5.71165C97.9047 5.71165 98.4072 5.79865 98.8724 5.97266C99.3412 6.14311 99.7496 6.40057 100.098 6.74503C100.449 7.08949 100.723 7.52273 100.918 8.04474C101.113 8.56321 101.211 9.17045 101.211 9.86648V10.4897H94.3021V9.08345H99.0748C99.0748 8.75675 99.0038 8.46733 98.8618 8.2152C98.7197 7.96307 98.5226 7.76598 98.2705 7.62393C98.0219 7.47834 97.7325 7.40554 97.4023 7.40554C97.0578 7.40554 96.7524 7.48544 96.4861 7.64524C96.2233 7.80149 96.0173 8.01278 95.8682 8.27912C95.719 8.5419 95.6427 8.83487 95.6391 9.15803V10.495C95.6391 10.8999 95.7137 11.2496 95.8628 11.5444C96.0155 11.8391 96.2304 12.0664 96.5074 12.2262C96.7844 12.386 97.1128 12.4659 97.4928 12.4659C97.7449 12.4659 97.9758 12.4304 98.1853 12.3594C98.3948 12.2884 98.5741 12.1818 98.7233 12.0398C98.8724 11.8977 98.9861 11.7237 99.0642 11.5178L101.163 11.6562C101.056 12.1605 100.838 12.6009 100.508 12.9773C100.181 13.3501 99.7584 13.6413 99.24 13.8509C98.7251 14.0568 98.1302 14.1598 97.4555 14.1598Z" fill="#5356FF"/>
</svg>
